<?xml version="1.0" encoding="UTF-8" standalone="no"?>
<svg
   version="1.1"
   x="0"
   y="0"
   width="1024"
   height="1024"
   id="svg2"
   sodipodi:docname="dice-1.svg"
   inkscape:version="1.1.2 (0a00cf5339, 2022-02-04)"
   xmlns:inkscape="http://www.inkscape.org/namespaces/inkscape"
   xmlns:sodipodi="http://sodipodi.sourceforge.net/DTD/sodipodi-0.dtd"
   xmlns="http://www.w3.org/2000/svg"
   xmlns:svg="http://www.w3.org/2000/svg">
  <sodipodi:namedview
     id="namedview37"
     pagecolor="#ffffff"
     bordercolor="#666666"
     borderopacity="1.0"
     inkscape:pageshadow="2"
     inkscape:pageopacity="0.0"
     inkscape:pagecheckerboard="0"
     showgrid="false"
     inkscape:snap-page="true"
     inkscape:zoom="0.72753906"
     inkscape:cx="511.31275"
     inkscape:cy="511.31275"
     inkscape:window-width="1914"
     inkscape:window-height="1157"
     inkscape:window-x="0"
     inkscape:window-y="0"
     inkscape:window-maximized="1"
     inkscape:current-layer="svg2" />
  <defs
     id="defs4" />
  <g
     transform="matrix(1.5,0,0,1.5,-683.674,167.81442)"
     id="g3658">
    <g
       transform="rotate(90,1000.5253,480.59292)"
       id="g3634">
      <path
         d="m 628.93236,528.61822 c 7.5,-12.5 25,-27.5 37.5,-27.5 l 278.6825,160.82693 c 4.11647,6.65796 12.40666,21.07873 5.29642,41.57018 L 676.43236,866.11822 c -7.5,2.5 -40,0 -50,-25 z"
         id="path3590"
         style="fill:#404040;fill-opacity:1;fill-rule:evenodd;stroke:#404040;stroke-width:2;stroke-linecap:round;stroke-linejoin:round;stroke-miterlimit:4;stroke-dasharray:none;stroke-opacity:1" />
      <g
         transform="matrix(0.1910977,-0.3317217,0.1910977,0.3317217,536.57663,687.19304)"
         id="g3592"
         style="overflow:visible">
        <path
           d="M 71.459473,553.5 C 34.080566,553.5 3.5,522.91895 3.5,485.54004 V 71.459473 C 3.5,34.082031 34.080566,3.5 71.459473,3.5 H 485.54004 C 522.91797,3.5 553.5,34.082031 553.5,71.459473 V 485.54004 C 553.5,522.91895 522.91797,553.5 485.54004,553.5 Z"
           id="path3594"
           style="fill:#ffffff;fill-opacity:1;stroke:#000000;stroke-width:7" />
        <circle
           cx="278.5"
           cy="278.5"
           r="57.115234"
           id="circle3602"
           style="fill:#404040;fill-opacity:1;stroke:#000000;stroke-width:5;stroke-opacity:1" />
      </g>
      <g
         transform="matrix(-0.3828283,3.653872e-4,0.1917306,-0.3313563,856.93036,867.37351)"
         id="g3606"
         style="overflow:visible">
        <path
           d="M 71.459473,553.5 C 34.080566,553.5 3.5,522.91895 3.5,485.54004 V 71.459473 C 3.5,34.082031 34.080566,3.5 71.459473,3.5 H 485.54004 C 522.91797,3.5 553.5,34.082031 553.5,71.459473 V 485.54004 C 553.5,522.91895 522.91797,553.5 485.54004,553.5 Z"
           id="path3608"
           style="fill:#ffffff;fill-opacity:1;stroke:#000000;stroke-width:7" />
        <circle
           cx="117.02637"
           cy="439.97461"
           r="57.115234"
           id="circle3610"
           style="fill:#404040;fill-opacity:1;stroke:#000000;stroke-width:5;stroke-opacity:1" />
        <circle
           cx="439.97314"
           cy="117.02588"
           r="57.114746"
           id="circle3614"
           style="fill:#404040;fill-opacity:1;stroke:#000000;stroke-width:5;stroke-opacity:1" />
      </g>
      <g
         transform="matrix(0.1917306,0.3313563,-0.3828283,-3.653872e-4,852.73494,500.43371)"
         id="g3620"
         style="overflow:visible">
        <path
           d="M 71.459473,553.5 C 34.080566,553.5 3.5,522.91895 3.5,485.54004 V 71.459473 C 3.5,34.082031 34.080566,3.5 71.459473,3.5 H 485.54004 C 522.91797,3.5 553.5,34.082031 553.5,71.459473 V 485.54004 C 553.5,522.91895 522.91797,553.5 485.54004,553.5 Z"
           id="path3622"
           style="fill:#ffffff;fill-opacity:1;stroke:#000000;stroke-width:7" />
        <circle
           cx="117.02637"
           cy="439.97461"
           r="57.115234"
           id="circle3624"
           style="fill:#404040;fill-opacity:1;stroke:#000000;stroke-width:5;stroke-opacity:1" />
        <circle
           cx="439.97314"
           cy="117.02588"
           r="57.114746"
           id="circle3628"
           style="fill:#404040;fill-opacity:1;stroke:#000000;stroke-width:5;stroke-opacity:1" />
        <circle
           cx="278.5"
           cy="278.5"
           r="57.115234"
           id="circle3630"
           style="fill:#404040;fill-opacity:1;stroke:#000000;stroke-width:5;stroke-opacity:1" />
      </g>
    </g>
  </g>
</svg>
